HIERARCHY
ROOT Hips
{
	OFFSET -3.958830 18.904000 13.208200
	CHANNELS 6 Xposition Yposition Zposition Zrotation Yrotation Xrotation 
	JOINT LHipJoint
	{
		OFFSET 0.000000 0.000000 0.000000
		CHANNELS 3 Zrotation Yrotation Xrotation
		JOINT LeftUpLeg
		{
			OFFSET 1.800000 -1.400000 0.085000
			CHANNELS 3 Zrotation Yrotation Xrotation
			JOINT LeftLeg
			{
				OFFSET 2.215000 -6.000000 0.000000
				CHANNELS 3 Zrotation Yrotation Xrotation
				JOINT LeftFoot
				{
					OFFSET 2.500000 -6.900000 0.000000
					CHANNELS 3 Zrotation Yrotation Xrotation
					JOINT LeftToeBase
					{
						OFFSET 0.200000 -0.500000 1.950000
						CHANNELS 3 Zrotation Yrotation Xrotation
						End Site
						{
							OFFSET 0.000000 0.000000 0.000000
						}
					}
				}
			}
		}
	}
	JOINT RHipJoint
	{
		OFFSET 0.000000 0.000000 0.000000
		CHANNELS 3 Zrotation Yrotation Xrotation
		JOINT RightUpLeg
		{
			OFFSET -1.800000 -1.400000 0.085000
			CHANNELS 3 Zrotation Yrotation Xrotation
			JOINT RightLeg
			{
				OFFSET -2.215000 -6.000000 0.000000
				CHANNELS 3 Zrotation Yrotation Xrotation
				JOINT RightFoot
				{
					OFFSET -2.500000 -6.900000 0.000000
					CHANNELS 3 Zrotation Yrotation Xrotation
					JOINT RightToeBase
					{
						OFFSET -0.200000 -0.500000 1.950000
						CHANNELS 3 Zrotation Yrotation Xrotation
						End Site
						{
							OFFSET 0.000000 0.000000 0.000000
						}
					}
				}
			}
		}
	}
	JOINT LowerBack
	{
		OFFSET 0.000000 0.000000 0.000000
		CHANNELS 3 Zrotation Yrotation Xrotation
		JOINT Spine
		{
			OFFSET -0.087000 1.940000 -0.288900
			CHANNELS 3 Zrotation Yrotation Xrotation
			JOINT Spine1
			{
				OFFSET 0.000000 1.950000 0.060000
				CHANNELS 3 Zrotation Yrotation Xrotation
				JOINT Neck
				{
					OFFSET 0.000000 0.000000 0.000000
					CHANNELS 3 Zrotation Yrotation Xrotation
					JOINT Neck1
					{
						OFFSET 0.000000 1.600000 0.340000
						CHANNELS 3 Zrotation Yrotation Xrotation
						JOINT Head
						{
							OFFSET 0.000000 1.667000 -0.240000
							CHANNELS 3 Zrotation Yrotation Xrotation
							End Site
							{
								OFFSET 0.000000 0.000000 0.000000
							}
						}
					}
				}
				JOINT LeftShoulder
				{
					OFFSET 0.000000 0.000000 0.000000
					CHANNELS 3 Zrotation Yrotation Xrotation
					JOINT LeftArm
					{
						OFFSET 2.700000 1.550000 -0.730000
						CHANNELS 3 Zrotation Yrotation Xrotation
						JOINT LeftForeArm
						{
							OFFSET 5.450000 0.000000 0.000000
							CHANNELS 3 Zrotation Yrotation Xrotation
							JOINT LeftHand
							{
								OFFSET 3.450000 0.000000 0.000000
								CHANNELS 3 Zrotation Yrotation Xrotation
								JOINT LeftHandIndex1
								{
									OFFSET 0.750000 0.000000 0.000000
									CHANNELS 3 Zrotation Yrotation Xrotation
									End Site
									{
										OFFSET 0.000000 0.000000 0.000000
									}
								}
							}
						}
					}
				}
				JOINT RightShoulder
				{
					OFFSET 0.000000 0.000000 0.000000
					CHANNELS 3 Zrotation Yrotation Xrotation
					JOINT RightArm
					{
						OFFSET -2.700000 1.550000 -0.730000
						CHANNELS 3 Zrotation Yrotation Xrotation
						JOINT RightForeArm
						{
							OFFSET -5.450000 0.000000 0.000000
							CHANNELS 3 Zrotation Yrotation Xrotation
							JOINT RightHand
							{
								OFFSET -3.450000 0.000000 0.000000
								CHANNELS 3 Zrotation Yrotation Xrotation
								JOINT RightHandIndex1
								{
									OFFSET -0.750000 0.000000 0.000000
									CHANNELS 3 Zrotation Yrotation Xrotation
									End Site
									{
										OFFSET 0.000000 0.000000 0.000000
									}
								}
							}
						}
					}
				}
			}
		}
	}
}
MOTION
Frames: 8
Frame Time: 0.016667
-0.026600 16.988550 -0.672640 -3.185755 -12.119361 2.714993 -14.543000 12.792233 2.697360 5.978430 -1.097459 -9.658604 -9.301852 6.714926 14.082995 0.490485 3.816239 3.289566 0.266670 0.003980 0.424020 18.806152 -11.906164 2.818059 -0.063187 0.517404 -13.129769 3.804822 -5.053942 18.691698 -0.182613 -3.488406 3.202044 -0.301870 -0.127820 0.239530 -5.063604 1.015098 -6.999229 13.846114 0.168089 1.006191 -12.789496 1.258508 9.544481 2.754225 2.821412 -13.793706 0.763299 -14.867259 52.287513 -9.373210 -14.112710 13.861910 -6.559954 -15.916552 9.082573 -57.306752 -7.547336 -5.542785 -28.731261 -28.435487 4.557038 -3.369346 3.492514 -0.040140 -0.041490 0.102700 0.096110 0.297617 15.515622 8.191976 79.601317 9.499448 -2.714375 13.754779 10.641302 0.010702 2.860995 -1.750622 0.347020 -0.319640 -0.323750 0.106250 
-0.030910 16.988410 -0.668790 -3.211567 -12.033322 2.721665 -14.580486 12.907536 2.719894 6.160402 -1.106212 -9.880929 -9.458697 6.856946 14.310739 0.475571 3.930522 3.263273 0.209580 -0.069340 0.393670 18.772094 -11.774958 2.798562 -0.000445 0.530418 -12.905605 3.791875 -5.029143 18.516047 -0.150686 -3.468574 3.227117 -0.329690 -0.078310 0.225430 -4.964614 0.574201 -6.992670 13.807606 0.002553 0.985641 -12.901867 1.196437 9.527962 2.822400 0.981856 -13.705342 -3.464664 -11.843009 52.956517 -9.938100 -12.075120 14.620130 -6.394954 -15.281986 8.783719 -57.830266 -7.858286 -5.279631 -28.160563 -28.510891 4.405069 -3.414797 3.445885 -0.032990 -0.011340 0.063920 0.077830 0.108584 16.166711 8.255243 79.511498 9.354118 -3.130123 14.130957 10.407478 0.017800 2.849322 -1.722633 0.302730 -0.291000 -0.278070 0.091440 
-0.034520 16.987190 -0.665290 -3.240314 -11.965771 2.777197 -14.619290 13.014251 2.739187 6.289612 -1.134098 -10.150953 -9.535632 6.959569 14.564892 0.449041 4.028068 3.235828 0.185460 -0.115470 0.390310 18.738112 -11.650147 2.779349 0.092188 0.568859 -12.755572 3.716715 -4.983103 18.391265 -0.134535 -3.442493 3.240386 -0.341390 -0.047400 0.225670 -4.863755 0.163877 -6.976796 13.787919 -0.139910 1.042988 -12.981384 1.138773 9.400511 2.936100 -0.807690 -13.600253 -7.460499 -8.893854 52.946668 -10.233180 -9.979920 14.587420 -6.447502 -14.460643 8.421665 -58.228959 -8.072389 -5.016804 -27.670754 -28.502853 4.247068 -3.448104 3.414413 -0.010380 0.007300 0.042740 0.064300 0.051196 16.595567 8.272396 79.311441 9.105649 -3.588238 14.543918 10.116705 0.013309 2.835019 -1.704692 0.267610 -0.274140 -0.248520 0.069900 
-0.036170 16.985120 -0.662340 -3.300274 -11.921325 2.893609 -14.656011 13.115280 2.753687 6.419253 -1.173064 -10.518730 -9.584913 7.068824 14.939222 0.423116 4.122010 3.204257 0.166440 -0.147250 0.378830 18.707797 -11.526118 2.760613 0.211149 0.621417 -12.675721 3.656189 -4.938436 18.286211 -0.124244 -3.411476 3.251748 -0.345750 -0.015540 0.228270 -4.772041 -0.232172 -6.951278 13.901307 -0.291689 1.156177 -13.062267 1.059990 9.168382 3.023592 -2.567207 -13.538080 -11.309758 -5.880762 52.314602 -10.022020 -7.903580 14.064300 -6.518510 -13.575874 8.071773 -58.703540 -8.225735 -4.783664 -27.125940 -28.424255 4.051072 -3.476923 3.388819 0.014520 0.021590 0.029240 0.057160 0.048740 16.895680 8.261560 79.114408 8.796594 -4.083038 14.860112 9.762931 0.001779 2.821273 -1.683047 0.235920 -0.254530 -0.219880 0.054930 
-0.036150 16.982660 -0.659830 -3.398918 -11.853762 3.059799 -14.691249 13.206063 2.765234 6.582804 -1.222906 -10.976889 -9.637112 7.187349 15.372001 0.394950 4.213132 3.168720 0.147180 -0.173660 0.368130 18.679924 -11.405016 2.743036 0.314480 0.684482 -12.654906 3.698094 -4.923323 18.188803 -0.115464 -3.380345 3.261501 -0.347510 0.012730 0.228490 -4.686858 -0.602508 -6.921900 14.100379 -0.426950 1.311611 -13.135341 0.986018 8.854417 3.134233 -4.184671 -13.558954 -14.824237 -2.985785 51.172875 -9.759150 -5.705790 13.283200 -6.664611 -12.743138 7.768207 -59.173833 -8.276157 -4.617051 -26.557162 -28.353638 3.840905 -3.505155 3.359966 0.040210 0.033730 0.019550 0.046910 0.068410 17.121978 8.269900 78.922600 8.379733 -4.667846 15.106343 9.467060 -0.023333 2.807631 -1.654847 0.204530 -0.232640 -0.190530 0.039600 
-0.035850 16.980300 -0.657530 -3.463066 -11.803170 3.243185 -14.729108 13.289461 2.777293 6.725741 -1.261015 -11.414283 -9.717497 7.293815 15.699432 0.368600 4.295899 3.136586 0.122600 -0.197760 0.347330 18.650949 -11.284438 2.722695 0.383027 0.750569 -12.657121 3.773680 -4.913946 18.092769 -0.108060 -3.348834 3.266975 -0.347740 0.047820 0.226940 -4.596461 -0.960669 -6.888282 14.206583 -0.530268 1.515719 -13.122211 0.929453 8.447500 3.198128 -5.684377 -13.644754 -18.092195 -0.027775 49.612499 -9.109990 -3.472080 12.349170 -6.863413 -11.916670 7.500943 -59.594657 -8.229435 -4.492293 -26.033996 -28.266132 3.633680 -3.532425 3.329774 0.066090 0.044490 0.011910 0.038170 0.247989 17.232022 8.289041 78.640156 7.804325 -5.352898 15.314961 9.261521 -0.059901 2.799244 -1.618014 0.170780 -0.205260 -0.158430 0.031020 
-0.034880 16.979820 -0.655910 -3.446591 -11.714625 3.403970 -14.773746 13.370254 2.788159 6.774034 -1.309696 -11.863856 -9.758925 7.398262 16.077792 0.328591 4.385207 3.105495 0.092900 -0.234110 0.318920 18.616678 -11.164599 2.696747 0.348283 0.811628 -12.663311 3.918166 -4.923693 17.960618 -0.089612 -3.328336 3.279240 -0.347640 0.092090 0.216580 -4.488911 -1.317092 -6.847901 14.066459 -0.618147 1.739402 -12.923700 0.864095 7.973063 3.190709 -7.031419 -13.755957 -21.103108 2.997290 47.737650 -8.260000 -1.133900 11.742300 -7.144493 -11.151303 7.260371 -59.974900 -8.171852 -4.324218 -25.516373 -28.041202 3.405365 -3.566151 3.297998 0.093580 0.062560 -0.013620 0.028580 0.678804 17.241826 8.298377 78.172518 7.121258 -5.998710 15.393599 8.979254 -0.100726 2.783497 -1.576757 0.124050 -0.175200 -0.119900 0.014610 
-0.032020 16.979390 -0.653620 -3.446831 -11.585217 3.584763 -14.815867 13.435207 2.792818 6.801761 -1.369779 -12.342716 -9.776868 7.497234 16.474864 0.277633 4.475879 3.074791 0.060250 -0.272260 0.286540 18.587954 -11.051955 2.668512 0.308203 0.872925 -12.686144 4.073819 -4.934115 17.838011 -0.065035 -3.315774 3.287254 -0.340980 0.143780 0.198710 -4.394620 -1.635164 -6.795323 13.957064 -0.721923 1.964689 -12.718876 0.773375 7.459950 3.091104 -8.198687 -13.757462 -23.689183 5.993387 45.311155 -7.111130 1.207590 11.086970 -7.410184 -10.237187 6.969847 -60.328448 -8.164495 -4.067200 -25.187139 -27.654369 3.207526 -3.606212 3.267437 0.118220 0.083750 -0.049960 0.016200 1.253223 16.882239 8.186570 77.591979 6.436159 -6.494006 15.425071 8.492344 -0.145288 2.769261 -1.532190 0.067640 -0.139930 -0.077260 -0.003560 
